# AST/ASF file generated using VICON BodyLanguage
# -----------------------------------------------
:version 1.10
:name VICON
:units
  mass 1.0
  length 0.45
  angle deg
:documentation
   .ast/.asf automatically generated from VICON data using
   VICON BodyBuilder and BodyLanguage model FoxedUp or BRILLIANT.MOD
:root
   order TX TY TZ RX RY RZ
   axis XYZ
   position 0 0 0  
   orientation 0 0 0 
:bonedata
  begin
     id 1 
     name lhipjoint
     direction 0.541323 -0.757556 0.364798 
     length 2.47576 
     axis 0 0 0  XYZ
  end
  begin
     id 2 
     name lfemur
     direction 0.34202 -0.939693 0  
     length 7.46493  
     axis 0 0 20  XYZ
    dof rx ry rz
    limits (-160.0 20.0)
           (-70.0 70.0)
           (-60.0 70.0)
  end
  begin
     id 3 
     name ltibia
     direction 0.34202 -0.939693 0   
     length 7.73805   
     axis 0 0 20   XYZ
    dof rx
    limits (-10.0 170.0)
  end
  begin
     id 4 
     name lfoot
     direction 0.107174 -0.294458 0.949636   
     length 2.25864   
     axis -90 7.62852e-016 20   XYZ
    dof rx rz
    limits (-45.0 90.0)
           (-70.0 20.0)
  end
  begin
     id 5 
     name ltoes
     direction 1.53606e-011 -4.21934e-011 1   
     length 1.12451   
     axis -90 7.62852e-016 20   XYZ
    dof rx
    limits (-90.0 20.0)
  end
  begin
     id 6 
     name rhipjoint
     direction -0.524745 -0.766967 0.36933   
     length 2.44538  
     axis 0 0 0  XYZ 
  end
  begin
     id 7 
     name rfemur
     direction -0.34202 -0.939693 0   
     length 7.61604   
     axis 0 0 -20   XYZ
    dof rx ry rz
    limits (-160.0 20.0)
           (-70.0 70.0)
           (-70.0 60.0)
  end
  begin
     id 8 
     name rtibia
     direction -0.34202 -0.939693 0   
     length 7.61056   
     axis 0 0 -20   XYZ
    dof rx
    limits (-10.0 170.0)
 end
 begin
     id 9 
     name rfoot
     direction -0.12616 -0.346623 0.929482   
     length 2.46372  
     axis -90 -7.62852e-016 -20   XYZ
    dof rx rz
    limits (-45.0 90.0)
           (-20.0 70.0)
  end
  begin
     id 10 
     name rtoes
     direction -1.53531e-011 -4.22004e-011 1   
     length 1.21611   
     axis -90 -7.62852e-016 -20   XYZ
    dof rx
    limits (-90.0 20.0)
  end
  begin
     id 11 
     name lowerback
     direction -0.000778023 0.997293 -0.0735223   
     length 2.06139   
     axis 0 0 0   XYZ
    dof rx ry rz
    limits (-20.0 45.0)
           (-30.0 30.0)
           (-30.0 30.0)
  end
  begin
     id 12 
     name upperback
     direction 0.0222598 0.999722 -0.0078355   
     length 2.06383   
     axis 0 0 0   XYZ
    dof rx ry rz
    limits (-20.0 45.0)
           (-30.0 30.0)
           (-30.0 30.0)
  end
  begin
     id 13 
     name thorax
     direction 0.0219654 0.999405 0.0265994   
     length 2.07163   
     axis 0 0 0   XYZ
    dof rx ry rz
    limits (-20.0 45.0)
           (-30.0 30.0)
           (-30.0 30.0)
  end
  begin
     id 14 
     name lowerneck
     direction 0.0213282 0.988147 0.15202   
     length 1.75969   
     axis 0 0 0   XYZ
    dof rx ry rz
    limits (-20.0 45.0)
           (-30.0 30.0)
           (-30.0 30.0)
  end
  begin
     id 15 
     name upperneck
     direction -0.0546456 0.982624 -0.177379   
     length 1.79244   
     axis 0 0 0   XYZ
    dof rx ry rz
    limits (-20.0 45.0)
           (-30.0 30.0)
           (-30.0 30.0)
  end
  begin
     id 16
     name head
     direction -0.0199987 0.996855 -0.076686  
     length 1.80555  
     axis 0 0 0   XYZ
    dof rx ry rz
    limits (-20.0 45.0)
           (-30.0 30.0)
           (-30.0 30.0)
  end
  begin
     id 17 
     name lclavicle
     direction 0.929565 0.363219 -0.063096  
     length 3.55722  
     axis 0 0 0   XYZ
    dof ry rz
    limits (-20.0 10.0)
           (0.0 20.0)
  end
  begin
     id 18 
     name lhumerus
     direction 1 -4.48993e-011 -2.36203e-027   
     length 4.92785   
     axis 180 -30 -90   XYZ
    dof rx ry rz
    limits (-60.0 90.0)
           (-90.0 90.0)
           (-90.0 90.0)
  end
  begin
     id 19
     name lradius
     direction 1 -4.48947e-011 2.02997e-027   
     length 3.44052   
     axis 180 -30 -90   XYZ
    dof rx
    limits (-10.0 170.0)
  end
  begin
     id 20
     name lwrist
     direction 1 -4.48962e-011 1.45991e-027   
     length 1.72026   
     axis 1.49639e-024 90 90   XYZ
    dof ry
    limits (-180.0 0.0)
 end
  begin
     id 21 
     name lhand
     direction 1 -4.48984e-011 2.91906e-027   
     length 0.654326   
     axis -1.863e-015 90 90   XYZ
    dof rx rz
    limits (-90.0 90.0)
           (-45.0 45.0)
  end
  begin
     id 22 
     name lfingers
     direction 1 -4.48961e-011 5.83968e-027   
     length 0.527534   
     axis -3.72598e-015 90 90   XYZ
    dof rx
    limits (0.0 90.0)
  end
  begin
     id 23
     name lthumb
     direction 0.707107 -6.34963e-011 0.707107   
     length 0.757437   
     axis -90 45 -6.68868e-015   XYZ
    dof rx rz
    limits (-45.0 45.0)
           (-45.0 45.0)
  end
  begin
     id 24 
     name rclavicle
     direction -0.902944 0.422599 -0.0781198   
     length 3.54432  
     axis 0 0 0   XYZ 
    dof ry rz
    limits (-10.0 20.0)
           (-20.0 0.0)
  end
  begin
     id 25 
     name rhumerus
     direction -1 -4.48953e-011 -4.75835e-028  
     length 5.09181   
     axis 180 30 90   XYZ
    dof rx ry rz
    limits (-90.0 60.0)
           (-90.0 90.0)
           (-90.0 90.0)
  end
  begin
     id 26 
     name rradius
     direction -1 -4.48986e-011 -3.25889e-027   
     length 3.49865   
     axis 180 30 90   XYZ
    dof rx
    limits (-10.0 170.0)
  end
  begin
     id 27 
     name rwrist
     direction -1 -4.48963e-011 1.45989e-027   
     length 1.74933   
     axis 1.49639e-024 -90 -90   XYZ
    dof ry
    limits (-180.0 0.0)
  end
  begin
     id 28
     name rhand
     direction -1 -4.49003e-011 2.91844e-027   
     length 0.66641   
     axis -1.863e-015 -90 -90   XYZ
    dof rx rz
    limits (-90.0 90.0)
           (-45.0 45.0)
  end
  begin
     id 29
     name rfingers
     direction -1 -4.48973e-011 5.83886e-027   
     length 0.537277   
     axis -3.72598e-015 -90 -90   XYZ
    dof rx
    limits (0.0 90.0)
  end
  begin
     id 30
     name rthumb
     direction -0.707107 -6.34976e-011 0.707107   
     length 0.771425   
     axis -90 -45 6.68868e-015   XYZ
    dof rx rz
    limits (-45.0 45.0)
           (-45.0 45.0)
  end
:hierarchy
  begin
    root lhipjoint rhipjoint lowerback
    lhipjoint lfemur
    lfemur ltibia
    ltibia lfoot
    lfoot ltoes
    rhipjoint rfemur
    rfemur rtibia
    rtibia rfoot
    rfoot rtoes
    lowerback upperback
    upperback thorax
    thorax lowerneck lclavicle rclavicle
    lowerneck upperneck
    upperneck head
    lclavicle lhumerus
    lhumerus lradius
    lradius lwrist
    lwrist lhand lthumb
    lhand lfingers
    rclavicle rhumerus
    rhumerus rradius
    rradius rwrist
    rwrist rhand rthumb
    rhand rfingers
  end

#!OML:ASF H:\LiuWeirdWalks\Patient Classification 1\Patient 1\Session 1\male.ASF
:FULLY-SPECIFIED
:DEGREES
42
root 1.78785 18.0017 4.47345 2.88405 7.79771 -2.03432
lowerback 1.18269 0.553821 -1.3816
upperback -0.948451 0.735669 1.49054
thorax -1.6723 0.39352 2.28441
lowerneck -15.6453 8.59964 11.7665
upperneck 21.4254 11.4065 -9.52937
head 10.7232 5.18607 -3.67918
rclavicle 3.29889e-014 -4.37326e-015
rhumerus -21.2204 -39.8334 -1.1265
rradius 21.7233
rwrist 6.59285
rhand -14.791 -5.59969
rfingers 7.12502
rthumb 11.3663 -35.2716
lclavicle 3.29889e-014 -4.37326e-015
lhumerus -12.7854 32.1175 12.8521
lradius 22.2775
lwrist -10.2473
lhand -13.182 8.69738
lfingers 7.12502
lthumb 12.9178 38.2775
rfemur -7.53241 -3.45841 19.1368
rtibia 30.5
rfoot -14.8698 -28.7269
rtoes -4.0856
lfemur -6.9039 -4.30033 -13.8094
ltibia 26.8734
lfoot -12.5391 20.7707
ltoes -9.33521
43
root 1.78768 18.0018 4.47326 2.8893 7.80661 -2.02595
lowerback 1.19367 0.543769 -1.38725
upperback -0.94949 0.722117 1.49366
thorax -1.67897 0.386905 2.29106
lowerneck -15.7826 8.4696 11.5811
upperneck 21.5352 11.235 -9.41686
head 10.7487 5.09996 -3.63436
rclavicle -2.33541e-014 1.16289e-014
rhumerus -21.1872 -39.69 -1.17198
rradius 21.7394
rwrist 6.47409
rhand -14.8128 -5.62812
rfingers 7.12502
rthumb 11.3453 -35.3012
lclavicle -2.33541e-014 1.16289e-014
lhumerus -12.836 32.0183 12.8248
lradius 22.3017
lwrist -10.173
lhand -13.1974 8.72477
lfingers 7.12502
lthumb 12.9029 38.3059
rfemur -7.53823 -3.48467 19.1246
rtibia 30.5043
rfoot -14.8687 -28.71
rtoes -4.09917
lfemur -6.90705 -4.31032 -13.8185
ltibia 26.8672
lfoot -12.5373 20.77
ltoes -9.32981
44
root 1.7876 18.0018 4.47307 2.89568 7.8155 -2.01692
lowerback 1.20504 0.533015 -1.39309
upperback -0.950567 0.707623 1.49693
thorax -1.68585 0.379826 2.298
lowerneck -15.9466 8.32587 11.3706
upperneck 21.6127 11.043 -9.297
head 10.7635 5.00266 -3.58511
rclavicle 2.47456e-014 3.8763e-015
rhumerus -21.155 -39.5794 -1.21019
rradius 21.7511
rwrist 6.40132
rhand -14.8252 -5.65535
rfingers 7.12502
rthumb 11.3334 -35.3291
lclavicle 2.47456e-014 3.8763e-015
lhumerus -12.8858 31.9234 12.7956
lradius 22.3201
lwrist -10.0975
lhand -13.214 8.74425
lfingers 7.12502
lthumb 12.8869 38.3264
rfemur -7.54488 -3.51234 19.1109
rtibia 30.5078
rfoot -14.8655 -28.6908
rtoes -4.10897
lfemur -6.91168 -4.31709 -13.8283
ltibia 26.8616
lfoot -12.5363 20.7665
ltoes -9.32334
45
root 1.78761 18.0019 4.47291 2.90172 7.82309 -2.00857
lowerback 1.21587 0.522773 -1.3975
upperback -0.950087 0.693827 1.49983
thorax -1.69084 0.373044 2.30375
lowerneck -16.1043 8.16886 11.1441
upperneck 21.6572 10.8343 -9.17542
head 10.7627 4.89706 -3.53526
rclavicle 1.94623e-014 -5.66536e-015
rhumerus -21.1267 -39.5401 -1.23292
rradius 21.7511
rwrist 6.40612
rhand -14.8221 -5.67859
rfingers 7.12502
rthumb 11.3363 -35.3522
lclavicle 1.94623e-014 -5.66536e-015
lhumerus -12.9313 31.851 12.7659
lradius 22.3306
lwrist -10.0499
lhand -13.2206 8.75711
lfingers 7.12502
lthumb 12.8805 38.3396
rfemur -7.55066 -3.53974 19.0973
rtibia 30.5104
rfoot -14.8642 -28.6689
rtoes -4.11214
lfemur -6.9156 -4.31999 -13.8376
ltibia 26.8563
lfoot -12.5343 20.7624
ltoes -9.3217
46
root 1.78755 18.0019 4.47286 2.90677 7.82877 -2.00238
lowerback 1.22354 0.51325 -1.40296
upperback -0.947184 0.681002 1.50409
thorax -1.69164 0.366706 2.31151
lowerneck -16.2584 7.99742 10.8947
upperneck 21.706 10.6106 -9.04517
head 10.7599 4.78392 -3.48112
rclavicle 1.8428e-014 -6.75868e-015
rhumerus -21.1023 -39.5504 -1.24406
rradius 21.7459
rwrist 6.46722
rhand -14.801 -5.68621
rfingers 7.12502
rthumb 11.3567 -35.3587
lclavicle 1.8428e-014 -6.75868e-015
lhumerus -12.9741 31.7937 12.7371
lradius 22.3369
lwrist -10.0158
lhand -13.2217 8.75788
lfingers 7.12502
lthumb 12.8795 38.3405
rfemur -7.55541 -3.55973 19.0873
rtibia 30.5126
rfoot -14.865 -28.6521
rtoes -4.1101
lfemur -6.91807 -4.3177 -13.8438
ltibia 26.8506
lfoot -12.5314 20.7556
ltoes -9.31954
47
root 1.7875 18.0019 4.47288 2.91098 7.83504 -1.99488
lowerback 1.22934 0.503449 -1.41112
upperback -0.944442 0.667758 1.50773
thorax -1.69156 0.360178 2.32017
lowerneck -16.3991 7.82523 10.6668
upperneck 21.775 10.3886 -8.93186
head 10.7655 4.67181 -3.43679
rclavicle -1.52195e-016 5.26779e-015
rhumerus -21.0745 -39.5525 -1.2624
rradius 21.7467
rwrist 6.50048
rhand -14.7842 -5.7084
rfingers 7.12502
rthumb 11.3729 -35.38
lclavicle -1.52195e-016 5.26779e-015
lhumerus -13.0158 31.7625 12.7078
lradius 22.3395
lwrist -10.0056
lhand -13.213 8.76264
lfingers 7.12502
lthumb 12.8878 38.3447
rfemur -7.55819 -3.57944 19.076
rtibia 30.5141
rfoot -14.8672 -28.6365
rtoes -4.10648
lfemur -6.9191 -4.31674 -13.8517
ltibia 26.8447
lfoot -12.5285 20.7501
ltoes -9.31888
48
root 1.78745 18.002 4.4729 2.91463 7.84417 -1.98727
lowerback 1.23222 0.492866 -1.42082
upperback -0.942661 0.65346 1.51096
thorax -1.69077 0.353141 2.32933
lowerneck -16.5224 7.66175 10.4937
upperneck 21.8621 10.1787 -8.85861
head 10.7824 4.56571 -3.41451
rclavicle -9.70628e-015 -1.88845e-015
rhumerus -21.0461 -39.5643 -1.27974
rradius 21.7454
rwrist 6.52372
rhand -14.7675 -5.7256
rfingers 7.12502
rthumb 11.3889 -35.3963
lclavicle -9.70628e-015 -1.88845e-015
lhumerus -13.0561 31.7454 12.6799
lradius 22.3408
lwrist -10.0027
lhand -13.2001 8.76761
lfingers 7.12502
lthumb 12.9003 38.3489
rfemur -7.55993 -3.59998 19.065
rtibia 30.5153
rfoot -14.8686 -28.6231
rtoes -4.10215
lfemur -6.91984 -4.31709 -13.8594
ltibia 26.8384
lfoot -12.5249 20.7442
ltoes -9.31843
49
root 1.78732 18.0021 4.47289 2.91899 7.85362 -1.97947
lowerback 1.23455 0.482346 -1.43137
upperback -0.944127 0.63924 1.51353
thorax -1.69302 0.34621 2.33829
lowerneck -16.6197 7.51002 10.3872
upperneck 21.9762 9.98487 -8.83119
head 10.8132 4.46794 -3.41806
rclavicle -4.30182e-015 -8.94531e-015
rhumerus -21.0145 -39.5654 -1.30309
rradius 21.7474
rwrist 6.5183
rhand -14.7624 -5.75993
rfingers 7.12502
rthumb 11.3939 -35.4304
lclavicle -4.30182e-015 -8.94531e-015
lhumerus -13.0935 31.7384 12.6551
lradius 22.3407
lwrist -10.0015
lhand -13.1904 8.77969
lfingers 7.12502
lthumb 12.9097 38.3604
rfemur -7.56279 -3.61969 19.0548
rtibia 30.5169
rfoot -14.8693 -28.6119
rtoes -4.09904
lfemur -6.92154 -4.3228 -13.8674
ltibia 26.8314
lfoot -12.5215 20.7428
ltoes -9.32177
50
root 1.78718 18.0022 4.47285 2.9234 7.86463 -1.96866
lowerback 1.23869 0.470598 -1.44584
upperback -0.948295 0.623289 1.51523
thorax -1.69898 0.338517 2.34857
lowerneck -16.7501 7.36109 10.2794
upperneck 22.145 9.79319 -8.78922
head 10.8702 4.37138 -3.41551
rclavicle 2.086e-014 -2.18663e-015
rhumerus -20.9768 -39.5475 -1.33715
rradius 21.7545
rwrist 6.48271
rhand -14.7713 -5.80762
rfingers 7.12502
rthumb 11.3853 -35.4785
lclavicle 2.086e-014 -2.18663e-015
lhumerus -13.1363 31.7162 12.6303
lradius 22.3457
lwrist -9.98564
lhand -13.1851 8.79594
lfingers 7.12502
lthumb 12.9148 38.3763
rfemur -7.56601 -3.64117 19.0415
rtibia 30.5195
rfoot -14.8679 -28.6008
rtoes -4.09788
lfemur -6.92258 -4.33663 -13.8795
ltibia 26.8236
lfoot -12.517 20.7472
ltoes -9.32695
